<svg viewBox="0 0 50 50" fill="none"
    xmlns="http://www.w3.org/2000/svg">
    <path d="M36.5384 0H13.4616C6.02694 0 0 6.02694 0 13.4616V36.5384C0 43.9731 6.02694 50 13.4616 50H36.5384C43.9731 50 50 43.9731 50 36.5384V13.4616C50 6.02694 43.9731 0 36.5384 0Z" fill="#39A6D9"/>
    <path d="M21.1991 7.30654C22.1132 6.73524 23.3082 6.98648 23.9181 7.86057L23.9752 7.94694L24.2487 8.38903C25.3705 10.222 26.6857 12.6011 27.9309 15.2247C29.2345 14.6355 30.6538 14.0769 32.1969 13.5537C33.2506 13.1965 34.3945 13.7611 34.7518 14.8149C35.1091 15.8686 34.5444 17.0125 33.4907 17.3698C32.0463 17.8595 30.7384 18.3761 29.5554 18.9122C30.6769 21.68 31.6306 24.6021 32.129 27.3695C32.7138 30.6164 32.7414 34.0225 31.2628 36.6906L31.1913 36.8171C29.934 38.9949 28.451 40.4626 26.791 41.271C25.1122 42.0884 23.4319 42.1433 21.9653 41.8037C18.4265 40.9845 16.2888 37.8103 15.4967 34.8815C14.7538 32.1344 14.7155 28.7901 16.2796 25.4091C17.6647 22.4151 20.2325 19.5517 24.3531 17.0839C23.1545 14.5451 21.8832 12.243 20.8141 10.496L20.5585 10.0828L20.5058 9.99347C19.9873 9.0622 20.2851 7.87788 21.1991 7.30654ZM25.9769 20.8138C22.6906 22.873 20.8748 25.073 19.9366 27.1009C18.8309 29.491 18.8496 31.8451 19.3863 33.8297C19.9592 35.9481 21.319 37.5184 22.874 37.8783C23.5703 38.0395 24.2898 38.0073 25.027 37.6483C25.7829 37.2802 26.7321 36.4822 27.7019 34.8024L27.7773 34.6661C28.5372 33.2307 28.689 31.0013 28.1635 28.0836C27.75 25.7883 26.9577 23.286 25.9769 20.8138Z" fill="white"/>
</svg>
